<svg xmlns="http://www.w3.org/2000/svg" version="1.1" xmlns:xlink="http://www.w3.org/1999/xlink" xmlns:svgjs="http://svgjs.dev/svgjs" width="1500" height="1500" viewBox="0 0 1500 1500"><rect width="1500" height="1500" fill="#ffffff"></rect><g transform="matrix(0.6666666666666666,0,0,0.6666666666666666,249.39393939393938,558.1592189588082)"><svg viewBox="0 0 396 152" data-background-color="#ffffff" preserveAspectRatio="xMidYMid meet" height="575" width="1500" xmlns="http://www.w3.org/2000/svg" xmlns:xlink="http://www.w3.org/1999/xlink"><g id="tight-bounds" transform="matrix(1,0,0,1,0.2400000000000091,0.06904013459434566)"><svg viewBox="0 0 395.52 151.84536752191102" height="151.84536752191102" width="395.52"><g><svg viewBox="0 0 675.2731048266577 259.24629040267445" height="151.84536752191102" width="395.52"><g><rect width="11.878391835257386" height="225.10531728162758" x="426.6152665844434" y="17.070486560523435" fill="#000000" opacity="1" stroke-width="0" stroke="transparent" fill-opacity="1" class="rect-yte-0" data-fill-palette-color="primary" rx="1%" id="yte-0" data-palette-color="#3d3839"></rect></g><g transform="matrix(1,0,0,1,0,35.82926300065907)"><svg viewBox="0 0 395.52 187.5877644013563" height="187.5877644013563" width="395.52"><g id="textblocktransform"><svg viewBox="0 0 395.52 187.5877644013563" height="187.5877644013563" width="395.52" id="textblock"><g><svg viewBox="0 0 395.52 131.71718677224035" height="131.71718677224035" width="395.52"><g transform="matrix(1,0,0,1,0,0)"><svg width="395.52" viewBox="0.4 -35.75 107.33999999999999 35.75" height="131.71718677224035" data-palette-color="#3d3839"><path d="M27.38-1.63Q27-1.25 25.68-0.63 24.35 0 22.45 0L22.45 0Q18.3 0 17.2-6.2L17.2-6.2Q15.45-6 13.03-6 10.6-6 9.95-6.15L9.95-6.15Q9.3-2.8 8.13-1.4 6.95 0 4.6 0L4.6 0Q3.45 0 2.4-0.4 1.35-0.8 0.9-1.2L0.9-1.2 0.4-1.6Q2.35-25.1 5.9-30L5.9-30Q7.2-31.7 8.3-32.13 9.4-32.55 10.35-32.55 11.3-32.55 11.55-32.52 11.8-32.5 11.9-32.5L11.9-32.5 11.7-33.5Q11.85-33.7 12.13-34.02 12.4-34.35 13.6-34.9 14.8-35.45 16.4-35.45L16.4-35.45Q19.7-35.45 21.63-32.98 23.55-30.5 25.08-23.38 26.6-16.25 27.95-2.25L27.95-2.25Q27.75-2 27.38-1.63ZM10.8-11.9L10.8-11.9Q12.4-12.1 14.15-12.1 15.9-12.1 16.15-12.05L16.15-12.05Q14.35-21.15 13-27.45L13-27.45Q11.75-20.55 10.8-11.9ZM34.85-35.45L34.85-35.45Q36.25-35.45 37.07-35.23 37.9-35 38.77-34.2 39.65-33.4 40.1-31.8L40.1-31.8Q41.1-28.3 41.1-20.8L41.1-20.8Q41.1-18.25 41.05-17.3L41.05-17.3Q41.75-17.55 43.2-17.55L43.2-17.55Q44.25-20.55 45.07-25.4 45.9-30.25 45.9-34.45L45.9-34.45Q47.2-35.45 50.17-35.45 53.15-35.45 54.52-34.15 55.9-32.85 55.9-30.65L55.9-30.65Q55.9-26.6 54.22-21.98 52.55-17.35 49.9-14.55L49.9-14.55 56.05-3.75Q55.95-3.4 55.3-2.6 54.65-1.8 54-1.3L54-1.3Q52.2 0 49.6 0L49.6 0Q45.8 0 44.5-3.1L44.5-3.1 40.8-12.05Q40.7-5.8 39.5-2.7L39.5-2.7Q39.05-1.5 38.1-0.88 37.15-0.25 36.4-0.13 35.65 0 34.3 0 32.95 0 31.85-0.33 30.75-0.65 30.3-1L30.3-1 29.9-1.3Q30.4-6.8 30.4-13.55L30.4-13.55Q30.4-25.7 29.8-31.6L29.8-31.6 29.55-33.75Q31.6-35.45 34.85-35.45ZM75.84-23.45L75.84-23.45 68.8-23.6Q68.45-21.45 68.45-18.2L68.45-18.2 68.45-17.85Q77.45-18 78.34-18L78.34-18Q78.59-16.75 78.59-15.8L78.59-15.8Q78.59-12.55 75.59-12.55L75.59-12.55 68.65-12.55Q69.05-8.9 71-8.3L71-8.3Q71.4-8.15 72-8.15L72-8.15Q74.09-8.15 78.09-9.75L78.09-9.75Q79.45-9.1 79.45-6.73 79.45-4.35 77.17-2.18 74.9 0 69.65 0L69.65 0Q64.65 0 61.45-2.75L61.45-2.75Q57.85-5.8 57.85-13.2L57.85-13.2Q57.85-18.9 60.05-23.55L60.05-23.55 58.8-23.45Q57.5-24.65 57.5-28.3L57.5-28.3Q57.5-35.7 62.6-35.7L62.6-35.7Q62.85-35.7 64.2-35.7 65.55-35.7 69.87-35.23 74.2-34.75 78.9-34.75L78.9-34.75Q79.5-33.25 79.5-29.98 79.5-26.7 78.65-25.08 77.8-23.45 75.84-23.45ZM86.19-35.45L86.19-35.45Q87.89-35.45 89.14-34.68 90.39-33.9 91.29-31.7L91.29-31.7Q93.54-35.75 97.59-35.75L97.59-35.75Q107.69-35.75 107.69-25.1L107.69-25.1Q107.69-21.6 106.39-19.05 105.09-16.5 102.99-15.15L102.99-15.15Q107.74-13.6 107.74-9.4L107.74-9.4Q107.74-4.7 104.74-2.35 101.74 0 97.69 0 93.64 0 90.64-2.35L90.64-2.35Q89.34 0 86.69 0L86.69 0Q85.39 0 84.09-0.53 82.79-1.05 82.14-1.6L82.14-1.6 81.49-2.1Q81.99-4.3 81.99-12.3L81.99-12.3Q81.99-24.35 81.59-31.65L81.59-31.65 81.44-33.8Q82.94-35.45 86.19-35.45ZM92.54-25.3L92.49-25.3Q92.69-22.3 92.69-20.28 92.69-18.25 92.59-15.05L92.59-15.05Q93.99-15.8 96.69-15.85L96.69-15.85Q98.19-17.8 98.19-20.05L98.19-20.05Q98.19-25.3 92.54-25.3L92.54-25.3ZM94.59-11.7L94.59-11.7 92.49-11.65Q92.39-9.75 92.09-7.25L92.09-7.25Q93.69-5.9 95.14-5.9 96.59-5.9 97.19-6.58 97.79-7.25 97.79-8.78 97.79-10.3 96.77-11 95.74-11.7 94.59-11.7Z" opacity="1" transform="matrix(1,0,0,1,0,0)" fill="#000000" class="wordmark-text-0" data-fill-palette-color="primary" id="text-0"></path></svg></g></svg></g><g transform="matrix(1,0,0,1,163.310208,162.81245335668376)"><svg viewBox="0 0 232.209792 24.775311044672545" height="24.775311044672545" width="232.209792"><g transform="matrix(1,0,0,1,0,0)"><svg width="232.209792" viewBox="0.98 -35.3 337.71 36.029999999999994" height="24.775311044672545" data-palette-color="#ffc604"><path d="M29.44 0.59L20.41 0.59Q21.24 0.34 21.44-0.51 21.63-1.37 21.68-2.05L21.68-2.05Q19.48-1.37 17.24-1.03 14.99-0.68 12.74-0.68L12.74-0.68Q11.28-0.68 9.25-0.93 7.23-1.17 5.4-1.86 3.56-2.54 2.27-3.76 0.98-4.98 0.98-6.98L0.98-6.98Q0.98-8.69 2.22-9.91 3.47-11.13 5.42-11.94 7.37-12.74 9.81-13.18 12.26-13.62 14.6-13.87 16.94-14.11 18.99-14.16 21.04-14.21 22.22-14.26L22.22-14.26Q22.22-14.94 22.24-15.58 22.27-16.21 22.27-16.89L22.27-16.89Q22.27-18.12 21.83-19.02 21.39-19.92 20.63-20.51 19.87-21.09 18.85-21.36 17.82-21.63 16.7-21.63L16.7-21.63Q15.63-21.63 14.38-21.34 13.13-21.04 12.01-20.46 10.89-19.87 10.06-18.97 9.23-18.07 9.03-16.89L9.03-16.89 2.88-17.72Q3.76-19.97 5.32-21.53 6.88-23.1 8.86-24.07 10.84-25.05 13.09-25.51 15.33-25.98 17.58-25.98L17.58-25.98Q19.73-25.98 21.75-25.44 23.78-24.9 25.37-23.8 26.95-22.71 27.91-21 28.86-19.29 28.86-16.94L28.86-16.94Q28.86-14.45 28.78-11.99 28.71-9.52 28.71-7.03L28.71-7.03Q28.71-6.59 28.71-5.44 28.71-4.3 28.78-3.05 28.86-1.81 29-0.76 29.15 0.29 29.44 0.59L29.44 0.59ZM7.62-6.98L7.62-6.98Q7.62-6.25 8.4-5.86 9.18-5.47 10.23-5.25 11.28-5.03 12.3-4.98 13.33-4.93 13.77-4.93L13.77-4.93Q15.82-4.93 17.92-5.22 20.02-5.52 21.97-6.15L21.97-6.15Q22.02-7.03 22.05-7.91 22.07-8.79 22.07-9.62L22.07-9.62 20.8-9.67Q20.36-9.67 19.21-9.64 18.07-9.62 16.6-9.55 15.14-9.47 13.55-9.3 11.96-9.13 10.64-8.84 9.33-8.54 8.47-8.08 7.62-7.62 7.62-6.98ZM62.69-23.78Q62.5-23.44 62.33-22.31 62.16-21.19 62.01-19.65 61.86-18.12 61.77-16.31 61.67-14.5 61.59-12.87 61.52-11.23 61.5-9.94 61.47-8.64 61.47-8.06L61.47-8.06Q61.47-7.57 61.47-6.32 61.47-5.08 61.59-3.76 61.72-2.44 61.94-1.37 62.16-0.29 62.6-0.1L62.6-0.1 54-0.15 54.2-2.49Q52.34-1.17 50.14-0.32 47.95 0.54 45.65 0.54L45.65 0.54Q43.36 0.54 41.23-0.02 39.11-0.59 37.5-1.76 35.89-2.93 34.91-4.76 33.93-6.59 33.93-9.18L33.93-9.18Q33.93-12.45 34.25-15.67 34.57-18.9 34.57-22.17L34.57-22.17Q34.57-22.71 34.54-23.24 34.52-23.78 34.42-24.32L34.42-24.32 42.67-24.32Q42.19-23.49 41.94-21.68 41.7-19.87 41.57-17.82 41.45-15.77 41.43-13.84 41.4-11.91 41.4-10.84L41.4-10.84Q41.4-8.98 41.7-7.76 41.99-6.54 42.7-5.81 43.41-5.08 44.63-4.79 45.85-4.49 47.7-4.49L47.7-4.49Q48.73-4.49 49.68-4.86 50.63-5.22 51.51-5.81 52.39-6.4 53.12-7.13 53.85-7.86 54.44-8.59L54.44-8.59Q54.54-10.74 54.59-12.84 54.64-14.94 54.64-17.09L54.64-17.09Q54.64-17.53 54.64-18.53 54.64-19.53 54.59-20.61 54.54-21.68 54.42-22.58 54.29-23.49 54.1-23.78L54.1-23.78 62.69-23.78ZM78.66-17.63Q78.56-15.14 78.46-12.62 78.36-10.11 78.36-7.62L78.36-7.62Q78.36-6.79 78.71-6.2 79.05-5.62 79.61-5.25 80.17-4.88 80.88-4.74 81.59-4.59 82.32-4.59L82.32-4.59Q83.25-4.59 84.15-4.74 85.05-4.88 85.93-5.13L85.93-5.13 85.15 0.1Q82.32 0.1 79.83-0.07 77.34-0.24 75.48-1.12 73.63-2 72.55-3.93 71.48-5.86 71.48-9.38L71.48-9.38Q71.48-11.43 71.6-13.5 71.72-15.58 71.92-17.63L71.92-17.63 64.69-17.58 65.03-22.36Q66.79-22.22 68.6-22.19 70.41-22.17 72.21-22.17L72.21-22.17Q72.31-23.58 72.36-24.93 72.41-26.27 72.41-27.69L72.41-27.69Q72.41-27.98 72.41-28.86 72.41-29.74 72.31-30.69 72.21-31.64 72.02-32.42 71.82-33.2 71.48-33.35L71.48-33.35 80.46-33.2Q80.27-33.2 80.17-32.91 80.07-32.62 79.98-32.47L79.98-32.47Q79.68-31.54 79.51-30.22 79.34-28.91 79.22-27.47 79.1-26.03 79.02-24.68 78.95-23.34 78.9-22.31L78.9-22.31Q80.56-22.41 82.27-22.49 83.98-22.56 85.64-22.95L85.64-22.95 85.64-17.68 78.66-17.63ZM108.64-23.44L108.64-23.44Q110.78-23.44 112.69-22.83 114.59-22.22 116.03-21 117.47-19.78 118.3-18.02 119.13-16.26 119.13-13.96L119.13-13.96Q119.13-13.43 119.11-12.3 119.08-11.18 119.08-9.79 119.08-8.4 119.08-6.88 119.08-5.37 119.13-4.05 119.18-2.73 119.28-1.76 119.38-0.78 119.57-0.49L119.57-0.49 111.22-0.49Q111.96-2.59 112.39-5.03 112.83-7.47 112.83-9.72L112.83-9.72Q112.83-11.52 112.47-13.13 112.1-14.75 111.25-15.94 110.39-17.14 109-17.82 107.61-18.51 105.56-18.51L105.56-18.51Q103.41-18.51 101.43-17.43 99.46-16.36 98.09-14.75L98.09-14.75Q98.04-13.18 98.04-11.6 98.04-10.01 98.04-8.4L98.04-8.4Q98.04-8.15 98.04-7.42 98.04-6.69 98.04-5.71 98.04-4.74 98.09-3.66 98.14-2.59 98.19-1.66 98.23-0.73 98.33-0.07 98.43 0.59 98.58 0.73L98.58 0.73 89.93 0.73Q90.13 0.49 90.3-0.93 90.47-2.34 90.64-4.32 90.81-6.3 90.96-8.62 91.11-10.94 91.2-13.01 91.3-15.09 91.37-16.65 91.45-18.21 91.5-18.75L91.5-18.75Q91.64-22.56 91.64-26.46L91.64-26.46Q91.64-26.71 91.64-27.42 91.64-28.13 91.62-29.08 91.59-30.03 91.55-31.08 91.5-32.13 91.4-33.03 91.3-33.94 91.13-34.57 90.96-35.21 90.72-35.3L90.72-35.3 100.04-35.21Q99.8-35.21 99.65-34.81 99.5-34.42 99.46-34.28L99.46-34.28Q99.06-33.01 98.94-31.62 98.82-30.22 98.72-28.91L98.72-28.91Q98.53-26.81 98.43-24.73 98.33-22.66 98.23-20.56L98.23-20.56Q100.43-22.12 103.22-22.78 106-23.44 108.64-23.44ZM138.12 0.73L138.12 0.73Q135.73 0.73 133.05 0.1 130.36-0.54 128.09-1.88 125.82-3.22 124.33-5.27 122.84-7.32 122.84-10.16L122.84-10.16Q122.84-13.62 124.21-16.36 125.58-19.09 127.87-20.97 130.17-22.85 133.19-23.85 136.22-24.85 139.54-24.85L139.54-24.85Q142.18-24.85 144.23-24 146.28-23.14 147.65-21.61 149.01-20.07 149.72-17.97 150.43-15.87 150.43-13.33L150.43-13.33Q150.43-10.89 149.7-8.64L149.7-8.64 129.34-8.64Q129.82-7.18 130.87-6.25 131.92-5.32 133.27-4.81 134.61-4.3 136.1-4.1 137.59-3.91 138.91-3.91L138.91-3.91Q139.74-3.91 141.13-4.03 142.52-4.15 143.98-4.42 145.45-4.69 146.74-5.08 148.04-5.47 148.67-6.05L148.67-6.05 151.06-1.86Q147.84-0.63 144.72 0.05 141.59 0.73 138.12 0.73ZM138.12-20.26L138.12-20.26Q136.66-20.26 135.22-19.68 133.78-19.09 132.61-18.14 131.44-17.19 130.56-15.89 129.68-14.6 129.29-13.23L129.29-13.23 143.25-13.23Q143.4-14.7 143.28-15.99 143.15-17.29 142.62-18.24 142.08-19.19 141.01-19.73 139.93-20.26 138.12-20.26ZM184.07-15.04L184.07-15.04Q184.07-11.67 183.75-8.35 183.43-5.03 183.43-1.66L183.43-1.66Q183.43-0.54 183.58 0.54L183.58 0.54 175.04 0.54Q175.52-0.24 175.77-2.08 176.01-3.91 176.13-5.98 176.26-8.06 176.28-9.99 176.31-11.91 176.31-12.94L176.31-12.94Q176.31-15.92 174.84-17.6 173.38-19.29 170.3-19.29L170.3-19.29Q169.27-19.29 168.32-18.92 167.37-18.55 166.52-17.97 165.66-17.38 164.9-16.65 164.15-15.92 163.56-15.19L163.56-15.19Q163.42-10.94 163.42-6.69L163.42-6.69Q163.42-6.35 163.42-5.35 163.42-4.35 163.46-3.22 163.51-2.1 163.61-1.15 163.71-0.2 163.95 0L163.95 0 155.31 0Q155.51-0.29 155.7-1.44 155.9-2.59 156.04-4.17 156.19-5.76 156.29-7.57 156.38-9.38 156.46-11.04 156.53-12.7 156.55-13.96 156.58-15.23 156.58-15.72L156.58-15.72Q156.58-16.11 156.55-17.36 156.53-18.6 156.43-19.95 156.34-21.29 156.12-22.41 155.9-23.54 155.46-23.68L155.46-23.68 164-23.63 163.85-21.29Q165.66-22.61 167.88-23.46 170.1-24.32 172.4-24.32L172.4-24.32Q174.65-24.32 176.77-23.85 178.89-23.39 180.51-22.29 182.12-21.19 183.09-19.43 184.07-17.68 184.07-15.04ZM200.52-17.63Q200.42-15.14 200.33-12.62 200.23-10.11 200.23-7.62L200.23-7.62Q200.23-6.79 200.57-6.2 200.91-5.62 201.47-5.25 202.04-4.88 202.74-4.74 203.45-4.59 204.18-4.59L204.18-4.59Q205.11-4.59 206.02-4.74 206.92-4.88 207.8-5.13L207.8-5.13 207.02 0.1Q204.18 0.1 201.69-0.07 199.2-0.24 197.35-1.12 195.49-2 194.42-3.93 193.34-5.86 193.34-9.38L193.34-9.38Q193.34-11.43 193.47-13.5 193.59-15.58 193.78-17.63L193.78-17.63 186.56-17.58 186.9-22.36Q188.66-22.22 190.46-22.19 192.27-22.17 194.08-22.17L194.08-22.17Q194.17-23.58 194.22-24.93 194.27-26.27 194.27-27.69L194.27-27.69Q194.27-27.98 194.27-28.86 194.27-29.74 194.17-30.69 194.08-31.64 193.88-32.42 193.69-33.2 193.34-33.35L193.34-33.35 202.33-33.2Q202.13-33.2 202.04-32.91 201.94-32.62 201.84-32.47L201.84-32.47Q201.55-31.54 201.38-30.22 201.21-28.91 201.08-27.47 200.96-26.03 200.89-24.68 200.82-23.34 200.77-22.31L200.77-22.31Q202.43-22.41 204.14-22.49 205.84-22.56 207.5-22.95L207.5-22.95 207.5-17.68 200.52-17.63ZM212.82-22.85L212.82-22.85 221.42-22.8Q221.17-22.75 221.05-22.39 220.93-22.02 220.83-21.83L220.83-21.83Q220.49-20.61 220.32-18.87 220.15-17.14 220.08-15.26 220-13.38 219.98-11.62 219.95-9.86 219.95-8.54L219.95-8.54Q219.95-8.11 219.95-6.76 219.95-5.42 220.03-3.91 220.1-2.39 220.25-1.15 220.39 0.1 220.69 0.39L220.69 0.39 212.04 0.39Q212.29 0.05 212.53-1.22 212.78-2.49 212.95-4.25 213.12-6.01 213.26-8.03 213.41-10.06 213.53-11.89 213.65-13.72 213.7-15.16 213.75-16.6 213.75-17.14L213.75-17.14Q213.75-17.43 213.75-18.31 213.75-19.19 213.65-20.14 213.56-21.09 213.36-21.9 213.17-22.71 212.82-22.85ZM217.07-34.67L217.07-34.67Q217.71-34.67 218.49-34.47 219.27-34.28 219.93-33.91 220.59-33.54 221.03-32.93 221.47-32.32 221.47-31.54L221.47-31.54Q221.47-30.76 221.03-30.18 220.59-29.59 219.93-29.22 219.27-28.86 218.49-28.66 217.71-28.47 217.07-28.47L217.07-28.47Q216.39-28.47 215.63-28.66 214.88-28.86 214.22-29.22 213.56-29.59 213.12-30.18 212.68-30.76 212.68-31.54L212.68-31.54Q212.68-32.32 213.12-32.93 213.56-33.54 214.22-33.91 214.88-34.28 215.63-34.47 216.39-34.67 217.07-34.67ZM245.24-13.82Q245.88-14.5 246.51-15.43 247.15-16.36 247.15-17.29L247.15-17.29Q247.15-18.16 246.51-18.73 245.88-19.29 245-19.58 244.12-19.87 243.17-20 242.22-20.12 241.58-20.12L241.58-20.12Q239.58-20.12 237.82-19.41 236.06-18.7 234.75-17.46 233.43-16.21 232.67-14.5 231.91-12.79 231.91-10.74L231.91-10.74Q231.91-8.84 232.72-7.71 233.52-6.59 234.77-6.03 236.02-5.47 237.58-5.32 239.14-5.18 240.7-5.18L240.7-5.18Q243.1-5.18 245.68-5.57 248.27-5.96 250.57-6.64L250.57-6.64 251.88-2.29Q249.54-1.42 246.66-1 243.78-0.59 241.24-0.59L241.24-0.59Q239.73-0.59 237.94-0.76 236.16-0.93 234.36-1.34 232.55-1.76 230.86-2.44 229.18-3.13 227.86-4.2 226.54-5.27 225.76-6.76 224.98-8.25 224.98-10.21L224.98-10.21Q224.98-13.77 226.71-16.48 228.45-19.19 231.16-21.02 233.87-22.85 237.16-23.78 240.46-24.71 243.63-24.71L243.63-24.71Q245.39-24.71 247.15-24.44 248.91-24.17 250.32-23.44 251.74-22.71 252.62-21.39 253.5-20.07 253.5-17.97L253.5-17.97Q253.5-16.89 253.3-15.87 253.11-14.84 252.81-13.82L252.81-13.82 245.24-13.82ZM284.45 0.59L275.42 0.59Q276.25 0.34 276.44-0.51 276.64-1.37 276.69-2.05L276.69-2.05Q274.49-1.37 272.24-1.03 270-0.68 267.75-0.68L267.75-0.68Q266.29-0.68 264.26-0.93 262.23-1.17 260.4-1.86 258.57-2.54 257.28-3.76 255.98-4.98 255.98-6.98L255.98-6.98Q255.98-8.69 257.23-9.91 258.47-11.13 260.43-11.94 262.38-12.74 264.82-13.18 267.26-13.62 269.61-13.87 271.95-14.11 274-14.16 276.05-14.21 277.22-14.26L277.22-14.26Q277.22-14.94 277.25-15.58 277.27-16.21 277.27-16.89L277.27-16.89Q277.27-18.12 276.83-19.02 276.39-19.92 275.64-20.51 274.88-21.09 273.85-21.36 272.83-21.63 271.71-21.63L271.71-21.63Q270.63-21.63 269.39-21.34 268.14-21.04 267.02-20.46 265.9-19.87 265.07-18.97 264.24-18.07 264.04-16.89L264.04-16.89 257.89-17.72Q258.77-19.97 260.33-21.53 261.89-23.1 263.87-24.07 265.85-25.05 268.09-25.51 270.34-25.98 272.58-25.98L272.58-25.98Q274.73-25.98 276.76-25.44 278.79-24.9 280.37-23.8 281.96-22.71 282.91-21 283.86-19.29 283.86-16.94L283.86-16.94Q283.86-14.45 283.79-11.99 283.72-9.52 283.72-7.03L283.72-7.03Q283.72-6.59 283.72-5.44 283.72-4.3 283.79-3.05 283.86-1.81 284.01-0.76 284.16 0.29 284.45 0.59L284.45 0.59ZM262.62-6.98L262.62-6.98Q262.62-6.25 263.41-5.86 264.19-5.47 265.24-5.25 266.29-5.03 267.31-4.98 268.34-4.93 268.78-4.93L268.78-4.93Q270.83-4.93 272.93-5.22 275.03-5.52 276.98-6.15L276.98-6.15Q277.03-7.03 277.05-7.91 277.08-8.79 277.08-9.62L277.08-9.62 275.81-9.67Q275.37-9.67 274.22-9.64 273.07-9.62 271.61-9.55 270.14-9.47 268.56-9.3 266.97-9.13 265.65-8.84 264.33-8.54 263.48-8.08 262.62-7.62 262.62-6.98ZM300.17-17.63Q300.07-15.14 299.98-12.62 299.88-10.11 299.88-7.62L299.88-7.62Q299.88-6.79 300.22-6.2 300.56-5.62 301.12-5.25 301.68-4.88 302.39-4.74 303.1-4.59 303.83-4.59L303.83-4.59Q304.76-4.59 305.66-4.74 306.57-4.88 307.45-5.13L307.45-5.13 306.66 0.1Q303.83 0.1 301.34-0.07 298.85-0.24 297-1.12 295.14-2 294.07-3.93 292.99-5.86 292.99-9.38L292.99-9.38Q292.99-11.43 293.11-13.5 293.24-15.58 293.43-17.63L293.43-17.63 286.21-17.58 286.55-22.36Q288.31-22.22 290.11-22.19 291.92-22.17 293.73-22.17L293.73-22.17Q293.82-23.58 293.87-24.93 293.92-26.27 293.92-27.69L293.92-27.69Q293.92-27.98 293.92-28.86 293.92-29.74 293.82-30.69 293.73-31.64 293.53-32.42 293.33-33.2 292.99-33.35L292.99-33.35 301.98-33.2Q301.78-33.2 301.68-32.91 301.59-32.62 301.49-32.47L301.49-32.47Q301.2-31.54 301.02-30.22 300.85-28.91 300.73-27.47 300.61-26.03 300.54-24.68 300.46-23.34 300.41-22.31L300.41-22.31Q302.07-22.41 303.78-22.49 305.49-22.56 307.15-22.95L307.15-22.95 307.15-17.68 300.17-17.63ZM325.75 0.73L325.75 0.73Q323.36 0.73 320.68 0.1 317.99-0.54 315.72-1.88 313.45-3.22 311.96-5.27 310.47-7.32 310.47-10.16L310.47-10.16Q310.47-13.62 311.84-16.36 313.2-19.09 315.5-20.97 317.79-22.85 320.82-23.85 323.85-24.85 327.17-24.85L327.17-24.85Q329.81-24.85 331.86-24 333.91-23.14 335.28-21.61 336.64-20.07 337.35-17.97 338.06-15.87 338.06-13.33L338.06-13.33Q338.06-10.89 337.33-8.64L337.33-8.64 316.96-8.64Q317.45-7.18 318.5-6.25 319.55-5.32 320.9-4.81 322.24-4.3 323.73-4.1 325.22-3.91 326.54-3.91L326.54-3.91Q327.37-3.91 328.76-4.03 330.15-4.15 331.61-4.42 333.08-4.69 334.37-5.08 335.67-5.47 336.3-6.05L336.3-6.05 338.69-1.86Q335.47-0.63 332.35 0.05 329.22 0.73 325.75 0.73ZM325.75-20.26L325.75-20.26Q324.29-20.26 322.85-19.68 321.41-19.09 320.24-18.14 319.06-17.19 318.19-15.89 317.31-14.6 316.92-13.23L316.92-13.23 330.88-13.23Q331.03-14.7 330.91-15.99 330.78-17.29 330.25-18.24 329.71-19.19 328.63-19.73 327.56-20.26 325.75-20.26Z" opacity="1" transform="matrix(1,0,0,1,0,0)" fill="#000000" class="slogan-text-1" data-fill-palette-color="secondary" id="text-1"></path></svg></g></svg></g></svg></g></svg></g><g transform="matrix(1,0,0,1,469.58892500414424,0)"><svg viewBox="0 0 205.6841798225135 259.24629040267445" height="259.24629040267445" width="205.6841798225135"><g><svg xmlns="http://www.w3.org/2000/svg" xmlns:xlink="http://www.w3.org/1999/xlink" version="1.1" x="0" y="0" viewBox="21.031749108512273 9.559 61.356250605120195 77.334" style="enable-background:new 0 0 100 100;" xml:space="preserve" height="259.24629040267445" width="205.6841798225135" class="icon-icon-0" data-fill-palette-color="accent" id="icon-0"><g fill="#ffc604" data-fill-palette-color="accent"><path d="M51.71 86.893C51.56 86.893 51.41 86.868 51.266 86.818 10.868 72.828 22.578 23.844 22.7 23.351A1.36 1.36 0 0 1 23.941 22.324C40.712 21.385 50.585 10.142 50.683 10.03 50.94 9.73 51.314 9.559 51.71 9.559H51.711C52.104 9.559 52.479 9.73 52.736 10.027 52.835 10.141 62.76 21.388 79.48 22.324 80.072 22.357 80.575 22.774 80.719 23.351 80.842 23.844 92.552 72.828 52.154 86.818A1.4 1.4 0 0 1 51.71 86.893M25.124 24.963C24.487 28.05 22.727 38.185 24.334 49.34 26.852 66.83 36.062 78.52 51.71 84.098 67.357 78.52 76.567 66.83 79.087 49.338 80.693 38.186 78.933 28.05 78.296 24.964 63.96 23.816 54.688 15.842 51.71 12.884 48.731 15.842 39.46 23.816 25.124 24.964" fill="#000000" data-fill-palette-color="accent"></path><path d="M49.616 60.097C49.124 60.097 48.656 59.883 48.334 59.51L39.122 48.87A1.696 1.696 0 1 1 41.686 46.65L49.616 55.81 63.996 39.2A1.695 1.695 0 1 1 66.56 41.421L50.898 59.51C50.576 59.883 50.108 60.097 49.616 60.097" fill="#000000" data-fill-palette-color="accent"></path></g></svg></g></svg></g></svg></g><defs></defs></svg><rect width="395.52" height="151.84536752191102" fill="none" stroke="none" visibility="hidden"></rect></g></svg></g></svg>